<svg width="36" height="32" viewBox="0 0 36 32" fill="none" xmlns="http://www.w3.org/2000/svg">
<g filter="url(#filter0_d_19_443)">
<path opacity="0.1" fill-rule="evenodd" clip-rule="evenodd" d="M4 16C4 7.16344 11.1634 0 20 0C28.8366 0 36 7.16344 36 16C36 24.8366 28.8366 32 20 32C11.1634 32 4 24.8366 4 16Z" fill="white"/>
<path fill-rule="evenodd" clip-rule="evenodd" d="M26.6679 10.4996C27.4022 10.7011 27.9805 11.2948 28.1768 12.0488C28.5335 13.4154 28.5335 16.2667 28.5335 16.2667C28.5335 16.2667 28.5335 19.1179 28.1768 20.4845C27.9805 21.2386 27.4022 21.8323 26.6679 22.0339C25.3371 22.4 20.0001 22.4 20.0001 22.4C20.0001 22.4 14.6632 22.4 13.3323 22.0339C12.5979 21.8323 12.0196 21.2386 11.8234 20.4845C11.4668 19.1179 11.4668 16.2667 11.4668 16.2667C11.4668 16.2667 11.4668 13.4154 11.8234 12.0488C12.0196 11.2948 12.5979 10.7011 13.3323 10.4996C14.6632 10.1334 20.0001 10.1334 20.0001 10.1334C20.0001 10.1334 25.3371 10.1334 26.6679 10.4996ZM18.4001 13.8666V19.2L22.6668 16.5334L18.4001 13.8666Z" fill="white"/>
</g>
<defs>
<filter id="filter0_d_19_443" x="0" y="0" width="40" height="40" filterUnits="userSpaceOnUse" color-interpolation-filters="sRGB">
<feFlood flood-opacity="0" result="BackgroundImageFix"/>
<feColorMatrix in="SourceAlpha" type="matrix" values="0 0 0 0 0 0 0 0 0 0 0 0 0 0 0 0 0 0 127 0" result="hardAlpha"/>
<feOffset dy="4"/>
<feGaussianBlur stdDeviation="2"/>
<feComposite in2="hardAlpha" operator="out"/>
<feColorMatrix type="matrix" values="0 0 0 0 0 0 0 0 0 0 0 0 0 0 0 0 0 0 0.25 0"/>
<feBlend mode="normal" in2="BackgroundImageFix" result="effect1_dropShadow_19_443"/>
<feBlend mode="normal" in="SourceGraphic" in2="effect1_dropShadow_19_443" result="shape"/>
</filter>
</defs>
</svg>
